<svg width="118" height="118" viewBox="0 0 118 118" fill="none" xmlns="http://www.w3.org/2000/svg">
<path d="M7.375 44.7417C7.375 31.6621 7.375 25.1223 9.92045 20.1266C12.1595 15.7322 15.7322 12.1595 20.1266 9.92045C25.1223 7.375 31.6621 7.375 44.7417 7.375H73.2583C86.3379 7.375 92.8777 7.375 97.8734 9.92045C102.268 12.1595 105.841 15.7322 108.08 20.1266C110.625 25.1223 110.625 31.6621 110.625 44.7417V73.2583C110.625 86.3379 110.625 92.8777 108.08 97.8734C105.841 102.268 102.268 105.841 97.8734 108.08C92.8777 110.625 86.3379 110.625 73.2583 110.625H44.7417C31.6621 110.625 25.1223 110.625 20.1266 108.08C15.7322 105.841 12.1595 102.268 9.92045 97.8734C7.375 92.8777 7.375 86.3379 7.375 73.2583V44.7417Z" fill="url(#paint0_linear_2002_9)"/>
<path d="M33 50.6667H85M50.3333 68.3333L56.1111 74.2222L67.6667 62.4444M44.5556 33V38.8889M73.4444 33V38.8889M42.2444 86H75.7556C78.9914 86 80.6095 86 81.8453 85.3581C82.9324 84.7937 83.8164 83.8927 84.3702 82.7847C85 81.525 85 79.8758 85 76.5778V48.3111C85 45.013 85 43.364 84.3702 42.1043C83.8164 40.9962 82.9324 40.0953 81.8453 39.5307C80.6095 38.8889 78.9914 38.8889 75.7556 38.8889H42.2444C39.0086 38.8889 37.3906 38.8889 36.1547 39.5307C35.0675 40.0953 34.1837 40.9962 33.6297 42.1043C33 43.364 33 45.013 33 48.3111V76.5778C33 79.8758 33 81.525 33.6297 82.7847C34.1837 83.8927 35.0675 84.7937 36.1547 85.3581C37.3906 86 39.0086 86 42.2444 86Z" stroke="white" stroke-width="5" stroke-linecap="round" stroke-linejoin="round"/>
<defs>
<linearGradient id="paint0_linear_2002_9" x1="22.7442" y1="3.79835" x2="95.2558" y2="114.202" gradientUnits="userSpaceOnUse">
<stop stop-color="white"/>
<stop offset="0.470918" stop-color="#639B02"/>
<stop offset="0.8" stop-color="#639B02"/>
</linearGradient>
</defs>
</svg>
