<svg width="118" height="118" viewBox="0 0 118 118" fill="none" xmlns="http://www.w3.org/2000/svg">
<path d="M7.375 44.7417C7.375 31.6621 7.375 25.1223 9.92045 20.1266C12.1595 15.7322 15.7322 12.1595 20.1266 9.92045C25.1223 7.375 31.6621 7.375 44.7417 7.375H73.2583C86.3379 7.375 92.8777 7.375 97.8734 9.92045C102.268 12.1595 105.841 15.7322 108.08 20.1266C110.625 25.1223 110.625 31.6621 110.625 44.7417V73.2583C110.625 86.3379 110.625 92.8777 108.08 97.8734C105.841 102.268 102.268 105.841 97.8734 108.08C92.8777 110.625 86.3379 110.625 73.2583 110.625H44.7417C31.6621 110.625 25.1223 110.625 20.1266 108.08C15.7322 105.841 12.1595 102.268 9.92045 97.8734C7.375 92.8777 7.375 86.3379 7.375 73.2583V44.7417Z" fill="url(#paint0_linear_2002_9)"/>
<path d="M29 46.8794C29 44.7613 29 43.7023 29.2081 42.8201C30.1239 38.9367 33.9209 35.8991 38.7752 35.1664C39.8778 35 41.2017 35 43.8492 35C45.0093 35 45.5893 35 46.1467 35.0417C48.5499 35.2215 50.8296 35.9769 52.6878 37.2092C53.1188 37.4951 53.5289 37.8232 54.3491 38.4794L56 39.8C58.4474 41.7579 59.6711 42.7368 61.1363 43.389C61.9412 43.7473 62.7953 44.0302 63.6812 44.2323C65.2937 44.6 67.0241 44.6 70.4852 44.6H71.6063C79.5035 44.6 83.4518 44.6 86.0186 46.4467C86.2547 46.6166 86.4794 46.7963 86.6915 46.9852C89 49.0384 89 52.1973 89 58.515V63.8C89 72.8509 89 77.3766 85.4852 80.1882C81.9707 83 76.3136 83 65 83H53C41.6863 83 36.0295 83 32.5147 80.1882C29 77.3766 29 72.8509 29 63.8V46.8794Z" stroke="white" stroke-width="7"/>
<defs>
<linearGradient id="paint0_linear_2002_9" x1="59" y1="7.375" x2="59" y2="110.625" gradientUnits="userSpaceOnUse">
<stop offset="0.141599" stop-color="#F00F0F"/>
<stop offset="0.570716" stop-color="#8A0909"/>
</linearGradient>
</defs>
</svg>
