<svg width="118" height="118" viewBox="0 0 118 118" fill="none" xmlns="http://www.w3.org/2000/svg">
<path d="M7.375 44.7417C7.375 31.6621 7.375 25.1223 9.92045 20.1266C12.1595 15.7322 15.7322 12.1595 20.1266 9.92045C25.1223 7.375 31.6621 7.375 44.7417 7.375H73.2583C86.3379 7.375 92.8777 7.375 97.8734 9.92045C102.268 12.1595 105.841 15.7322 108.08 20.1266C110.625 25.1223 110.625 31.6621 110.625 44.7417V73.2583C110.625 86.3379 110.625 92.8777 108.08 97.8734C105.841 102.268 102.268 105.841 97.8734 108.08C92.8777 110.625 86.3379 110.625 73.2583 110.625H44.7417C31.6621 110.625 25.1223 110.625 20.1266 108.08C15.7322 105.841 12.1595 102.268 9.92045 97.8734C7.375 92.8777 7.375 86.3379 7.375 73.2583V44.7417Z" fill="url(#paint0_linear_2002_9)"/>
<path d="M35.5 79.6252L49.875 65.2502M81.5 79.6252L67.125 65.2502M32.7064 53.7502L53.3957 67.5979C55.24 68.8275 56.1623 69.4422 57.1591 69.6811C58.0397 69.8921 58.958 69.8921 59.8389 69.6811C60.8357 69.4422 61.758 68.8275 63.6023 67.5979L84.2916 53.7502M53.607 36.6979L36.9322 47.1701C35.3597 48.1575 34.5735 48.6513 34.0033 49.3188C33.4986 49.9095 33.1188 50.5964 32.8869 51.338C32.625 52.1759 32.625 53.1043 32.625 54.9611V73.3002C32.625 76.5205 32.625 78.1307 33.2517 79.3607C33.803 80.4425 34.6826 81.3223 35.7646 81.8734C36.9945 82.5002 38.6047 82.5002 41.825 82.5002H75.175C78.3953 82.5002 80.0056 82.5002 81.2355 81.8734C82.3174 81.3223 83.1971 80.4425 83.7482 79.3607C84.375 78.1307 84.375 76.5205 84.375 73.3002V54.9611C84.375 53.1043 84.375 52.1759 84.1131 51.338C83.8811 50.5964 83.5016 49.9095 82.9967 49.3188C82.4266 48.6513 81.6403 48.1575 80.068 47.1701L63.393 36.6979C61.6182 35.5835 60.731 35.0263 59.7791 34.8091C58.937 34.617 58.063 34.617 57.2209 34.8091C56.269 35.0263 55.3818 35.5835 53.607 36.6979Z" stroke="white" stroke-width="4" stroke-linecap="round" stroke-linejoin="round"/>
<defs>
<linearGradient id="paint0_linear_2002_9" x1="22.7442" y1="3.79835" x2="95.2558" y2="114.202" gradientUnits="userSpaceOnUse">
<stop stop-color="white"/>
<stop offset="0.470918" stop-color="#612200"/>
<stop offset="0.8" stop-color="#612200"/>
</linearGradient>
</defs>
</svg>
