<svg width="118" height="118" viewBox="0 0 118 118" fill="none" xmlns="http://www.w3.org/2000/svg">
<path d="M7.375 44.7417C7.375 31.6621 7.375 25.1223 9.92045 20.1266C12.1595 15.7322 15.7322 12.1595 20.1266 9.92045C25.1223 7.375 31.6621 7.375 44.7417 7.375H73.2583C86.3379 7.375 92.8777 7.375 97.8734 9.92045C102.268 12.1595 105.841 15.7322 108.08 20.1266C110.625 25.1223 110.625 31.6621 110.625 44.7417V73.2583C110.625 86.3379 110.625 92.8777 108.08 97.8734C105.841 102.268 102.268 105.841 97.8734 108.08C92.8777 110.625 86.3379 110.625 73.2583 110.625H44.7417C31.6621 110.625 25.1223 110.625 20.1266 108.08C15.7322 105.841 12.1595 102.268 9.92045 97.8734C7.375 92.8777 7.375 86.3379 7.375 73.2583V44.7417Z" fill="#009C82"/>
<path fill-rule="evenodd" clip-rule="evenodd" d="M56.0731 41C57.3573 40.9965 58.4934 41.6414 58.8711 42.5883L68.1091 65.7493L76.7086 49.1644C77.0728 48.4621 77.87 47.948 78.8301 47.7959C79.7906 47.6439 80.7858 47.8742 81.4791 48.409L90.2291 55.159C91.368 56.0376 91.368 57.4623 90.2291 58.341C89.0901 59.2196 87.2433 59.2196 86.1043 58.341L80.4818 54.0038L70.4581 73.3356C69.9988 74.2212 68.8659 74.7871 67.6304 74.7482C66.3952 74.709 65.326 74.0732 64.9623 73.1617L56.1186 50.9894L50.127 66.3964C49.8107 67.2098 48.9278 67.8166 47.8441 67.9651C46.7604 68.1138 45.6604 67.7793 45 67.1L38.5833 60.5001L32.1667 67.1C31.2002 68.094 29.372 68.2956 28.0833 67.55C26.7947 66.8043 26.5335 65.394 27.5 64.4L36.25 55.4C36.8008 54.8334 37.6653 54.5 38.5833 54.5C39.5014 54.5 40.3658 54.8334 40.9167 55.4L46.1999 60.8342L53.2898 42.6035C53.6587 41.6546 54.7889 41.0035 56.0731 41Z" fill="white"/>
</svg>
