<svg width="118" height="118" viewBox="0 0 118 118" fill="none" xmlns="http://www.w3.org/2000/svg">
<path d="M7.375 44.7417C7.375 31.6621 7.375 25.1223 9.92045 20.1266C12.1595 15.7322 15.7322 12.1595 20.1266 9.92045C25.1223 7.375 31.6621 7.375 44.7417 7.375H73.2583C86.3379 7.375 92.8777 7.375 97.8734 9.92045C102.268 12.1595 105.841 15.7322 108.08 20.1266C110.625 25.1223 110.625 31.6621 110.625 44.7417V73.2583C110.625 86.3379 110.625 92.8777 108.08 97.8734C105.841 102.268 102.268 105.841 97.8734 108.08C92.8777 110.625 86.3379 110.625 73.2583 110.625H44.7417C31.6621 110.625 25.1223 110.625 20.1266 108.08C15.7322 105.841 12.1595 102.268 9.92045 97.8734C7.375 92.8777 7.375 86.3379 7.375 73.2583V44.7417Z" fill="url(#paint0_linear_2002_9)"/>
<path d="M89.2651 49.5876L54.4902 40.9154C51.8812 40.2664 49.214 41.8663 48.565 44.4774L39.8928 79.2524C39.2395 81.8635 40.8415 84.5242 43.4505 85.1775L78.2233 93.8519C80.8322 94.5009 83.4994 92.8967 84.1485 90.2899L92.8228 55.5171C93.4739 52.906 91.8741 50.2409 89.2651 49.5876ZM87.6867 55.9117L81.3778 81.2059C81.1621 82.0726 80.2716 82.6074 79.4048 82.3896L47.7909 74.5066C46.922 74.291 46.3872 73.4026 46.6028 72.5315L52.9118 47.2417C53.1275 46.3706 54.018 45.8401 54.8869 46.0536L86.4987 53.9409C87.3698 54.1522 87.9045 55.0449 87.6867 55.9117Z" fill="white"/>
<path d="M60.34 59.245C62.7836 59.245 64.7645 57.2641 64.7645 54.8205C64.7645 52.3769 62.7836 50.396 60.34 50.396C57.8964 50.396 55.9155 52.3769 55.9155 54.8205C55.9155 57.2641 57.8964 59.245 60.34 59.245Z" fill="white"/>
<path d="M73.982 61.2481C73.6888 60.3468 72.8932 60.1484 72.214 60.8061L65.8683 66.9339C65.1891 67.5873 64.2318 67.46 63.7445 66.6472L62.7289 64.9632C62.2395 64.1503 61.1786 63.8851 60.3679 64.3745L50.057 70.524C49.2441 71.0091 49.3476 71.5352 50.264 71.7659L56.946 73.4283C57.8646 73.6591 59.3653 74.0342 60.286 74.2671L68.1797 76.2335C69.0983 76.4599 70.6011 76.8351 71.5197 77.0637L78.1995 78.7304C79.1181 78.9611 79.6161 78.4695 79.3229 77.5682L73.982 61.2481Z" fill="white"/>
<path d="M32.4066 42.1983L62.8045 30.4708C63.6411 30.1495 64.5898 30.5678 64.911 31.4023L68.1583 39.8825L73.9498 41.3272L68.887 28.127C67.9189 25.6194 65.0749 24.358 62.5673 25.3262L29.127 38.2201C26.6194 39.1904 25.358 42.0344 26.3262 44.5421L37.1179 72.5617L39.1749 64.3099L31.4708 44.3027C31.1517 43.464 31.57 42.5174 32.4066 42.1983Z" fill="white"/>
<defs>
<linearGradient id="paint0_linear_2002_9" x1="22.7442" y1="3.79835" x2="95.2558" y2="114.202" gradientUnits="userSpaceOnUse">
<stop stop-color="white"/>
<stop offset="0.394231" stop-color="#9B0B0E"/>
<stop offset="0.692308" stop-color="#9B0B0E"/>
<stop offset="0.903846" stop-color="white"/>
</linearGradient>
</defs>
</svg>
