<svg width="118" height="118" viewBox="0 0 118 118" fill="none" xmlns="http://www.w3.org/2000/svg">
<path d="M7.375 44.7417C7.375 31.6621 7.375 25.1223 9.92045 20.1266C12.1595 15.7322 15.7322 12.1595 20.1266 9.92045C25.1223 7.375 31.6621 7.375 44.7417 7.375H73.2583C86.3379 7.375 92.8777 7.375 97.8734 9.92045C102.268 12.1595 105.841 15.7322 108.08 20.1266C110.625 25.1223 110.625 31.6621 110.625 44.7417V73.2583C110.625 86.3379 110.625 92.8777 108.08 97.8734C105.841 102.268 102.268 105.841 97.8734 108.08C92.8777 110.625 86.3379 110.625 73.2583 110.625H44.7417C31.6621 110.625 25.1223 110.625 20.1266 108.08C15.7322 105.841 12.1595 102.268 9.92045 97.8734C7.375 92.8777 7.375 86.3379 7.375 73.2583V44.7417Z" fill="white"/>
<path d="M7.375 44.7417C7.375 31.6621 7.375 25.1223 9.92045 20.1266C12.1595 15.7322 15.7322 12.1595 20.1266 9.92045C25.1223 7.375 31.6621 7.375 44.7417 7.375H73.2583C86.3379 7.375 92.8777 7.375 97.8734 9.92045C102.268 12.1595 105.841 15.7322 108.08 20.1266C110.625 25.1223 110.625 31.6621 110.625 44.7417V73.2583C110.625 86.3379 110.625 92.8777 108.08 97.8734C105.841 102.268 102.268 105.841 97.8734 108.08C92.8777 110.625 86.3379 110.625 73.2583 110.625H44.7417C31.6621 110.625 25.1223 110.625 20.1266 108.08C15.7322 105.841 12.1595 102.268 9.92045 97.8734C7.375 92.8777 7.375 86.3379 7.375 73.2583V44.7417Z" fill="url(#paint0_radial_2002_9)"/>
<path d="M7.375 44.7417C7.375 31.6621 7.375 25.1223 9.92045 20.1266C12.1595 15.7322 15.7322 12.1595 20.1266 9.92045C25.1223 7.375 31.6621 7.375 44.7417 7.375H73.2583C86.3379 7.375 92.8777 7.375 97.8734 9.92045C102.268 12.1595 105.841 15.7322 108.08 20.1266C110.625 25.1223 110.625 31.6621 110.625 44.7417V73.2583C110.625 86.3379 110.625 92.8777 108.08 97.8734C105.841 102.268 102.268 105.841 97.8734 108.08C92.8777 110.625 86.3379 110.625 73.2583 110.625H44.7417C31.6621 110.625 25.1223 110.625 20.1266 108.08C15.7322 105.841 12.1595 102.268 9.92045 97.8734C7.375 92.8777 7.375 86.3379 7.375 73.2583V44.7417Z" fill="url(#paint1_radial_2002_9)"/>
<path d="M7.375 44.7417C7.375 31.6621 7.375 25.1223 9.92045 20.1266C12.1595 15.7322 15.7322 12.1595 20.1266 9.92045C25.1223 7.375 31.6621 7.375 44.7417 7.375H73.2583C86.3379 7.375 92.8777 7.375 97.8734 9.92045C102.268 12.1595 105.841 15.7322 108.08 20.1266C110.625 25.1223 110.625 31.6621 110.625 44.7417V73.2583C110.625 86.3379 110.625 92.8777 108.08 97.8734C105.841 102.268 102.268 105.841 97.8734 108.08C92.8777 110.625 86.3379 110.625 73.2583 110.625H44.7417C31.6621 110.625 25.1223 110.625 20.1266 108.08C15.7322 105.841 12.1595 102.268 9.92045 97.8734C7.375 92.8777 7.375 86.3379 7.375 73.2583V44.7417Z" fill="url(#paint2_radial_2002_9)"/>
<path d="M7.375 44.7417C7.375 31.6621 7.375 25.1223 9.92045 20.1266C12.1595 15.7322 15.7322 12.1595 20.1266 9.92045C25.1223 7.375 31.6621 7.375 44.7417 7.375H73.2583C86.3379 7.375 92.8777 7.375 97.8734 9.92045C102.268 12.1595 105.841 15.7322 108.08 20.1266C110.625 25.1223 110.625 31.6621 110.625 44.7417V73.2583C110.625 86.3379 110.625 92.8777 108.08 97.8734C105.841 102.268 102.268 105.841 97.8734 108.08C92.8777 110.625 86.3379 110.625 73.2583 110.625H44.7417C31.6621 110.625 25.1223 110.625 20.1266 108.08C15.7322 105.841 12.1595 102.268 9.92045 97.8734C7.375 92.8777 7.375 86.3379 7.375 73.2583V44.7417Z" fill="url(#paint3_radial_2002_9)"/>
<path d="M7.375 44.7417C7.375 31.6621 7.375 25.1223 9.92045 20.1266C12.1595 15.7322 15.7322 12.1595 20.1266 9.92045C25.1223 7.375 31.6621 7.375 44.7417 7.375H73.2583C86.3379 7.375 92.8777 7.375 97.8734 9.92045C102.268 12.1595 105.841 15.7322 108.08 20.1266C110.625 25.1223 110.625 31.6621 110.625 44.7417V73.2583C110.625 86.3379 110.625 92.8777 108.08 97.8734C105.841 102.268 102.268 105.841 97.8734 108.08C92.8777 110.625 86.3379 110.625 73.2583 110.625H44.7417C31.6621 110.625 25.1223 110.625 20.1266 108.08C15.7322 105.841 12.1595 102.268 9.92045 97.8734C7.375 92.8777 7.375 86.3379 7.375 73.2583V44.7417Z" fill="url(#paint4_radial_2002_9)"/>
<path d="M7.375 44.7417C7.375 31.6621 7.375 25.1223 9.92045 20.1266C12.1595 15.7322 15.7322 12.1595 20.1266 9.92045C25.1223 7.375 31.6621 7.375 44.7417 7.375H73.2583C86.3379 7.375 92.8777 7.375 97.8734 9.92045C102.268 12.1595 105.841 15.7322 108.08 20.1266C110.625 25.1223 110.625 31.6621 110.625 44.7417V73.2583C110.625 86.3379 110.625 92.8777 108.08 97.8734C105.841 102.268 102.268 105.841 97.8734 108.08C92.8777 110.625 86.3379 110.625 73.2583 110.625H44.7417C31.6621 110.625 25.1223 110.625 20.1266 108.08C15.7322 105.841 12.1595 102.268 9.92045 97.8734C7.375 92.8777 7.375 86.3379 7.375 73.2583V44.7417Z" fill="url(#paint5_radial_2002_9)"/>
<path d="M7.375 44.7417C7.375 31.6621 7.375 25.1223 9.92045 20.1266C12.1595 15.7322 15.7322 12.1595 20.1266 9.92045C25.1223 7.375 31.6621 7.375 44.7417 7.375H73.2583C86.3379 7.375 92.8777 7.375 97.8734 9.92045C102.268 12.1595 105.841 15.7322 108.08 20.1266C110.625 25.1223 110.625 31.6621 110.625 44.7417V73.2583C110.625 86.3379 110.625 92.8777 108.08 97.8734C105.841 102.268 102.268 105.841 97.8734 108.08C92.8777 110.625 86.3379 110.625 73.2583 110.625H44.7417C31.6621 110.625 25.1223 110.625 20.1266 108.08C15.7322 105.841 12.1595 102.268 9.92045 97.8734C7.375 92.8777 7.375 86.3379 7.375 73.2583V44.7417Z" fill="url(#paint6_radial_2002_9)"/>
<path d="M28.3196 72.4765L46.2961 54.5001L28.3196 36.5236L34.2416 30.6016L58.1401 54.5001L34.2416 78.3985L28.3196 72.4765Z" fill="white"/>
<path d="M54.3127 83.8125H87.8129V75.4375H54.3127V83.8125Z" fill="white"/>
<defs>
<radialGradient id="paint0_radial_2002_9" cx="0" cy="0" r="1" gradientTransform="matrix(42.1604 45.0064 -45.0064 44.3502 93.2016 95.6229)" gradientUnits="userSpaceOnUse">
<stop stop-color="#68E048"/>
<stop offset="1" stop-color="#5CE049" stop-opacity="0"/>
</radialGradient>
<radialGradient id="paint1_radial_2002_9" cx="0" cy="0" r="1" gradientTransform="matrix(-46.2474 42.5796 -42.5796 -48.6495 23.7229 95.1816)" gradientUnits="userSpaceOnUse">
<stop stop-color="#308CFE"/>
<stop offset="1" stop-color="#2F8BFF" stop-opacity="0"/>
</radialGradient>
<radialGradient id="paint2_radial_2002_9" cx="0" cy="0" r="1" gradientTransform="matrix(36.5677 5.07425 -5.07425 38.467 91.2656 65.1774)" gradientUnits="userSpaceOnUse">
<stop stop-color="#FDD511"/>
<stop offset="1" stop-color="#FDD20D" stop-opacity="0"/>
</radialGradient>
<radialGradient id="paint3_radial_2002_9" cx="0" cy="0" r="1" gradientTransform="matrix(-32.9109 -43.4621 43.4621 -34.6203 25.0135 44.6597)" gradientUnits="userSpaceOnUse">
<stop stop-color="#F928C2"/>
<stop offset="1" stop-color="#F922BC" stop-opacity="0"/>
</radialGradient>
<radialGradient id="paint4_radial_2002_9" cx="0" cy="0" r="1" gradientTransform="matrix(24.5219 -48.9776 48.9776 25.7955 65.8833 24.5833)" gradientUnits="userSpaceOnUse">
<stop stop-color="#F90700"/>
<stop offset="1" stop-color="#F90700" stop-opacity="0"/>
</radialGradient>
<radialGradient id="paint5_radial_2002_9" cx="0" cy="0" r="1" gradientTransform="matrix(13.5516 -30.0043 30.0043 14.2554 105.032 22.3771)" gradientUnits="userSpaceOnUse">
<stop stop-color="#FB4200"/>
<stop offset="1" stop-color="#FB4300" stop-opacity="0"/>
</radialGradient>
<radialGradient id="paint6_radial_2002_9" cx="0" cy="0" r="1" gradientTransform="matrix(-20.2198 -21.1795 21.1795 -21.27 18.1302 19.9503)" gradientUnits="userSpaceOnUse">
<stop stop-color="#FE0D88"/>
<stop offset="1" stop-color="#FE0D88" stop-opacity="0"/>
</radialGradient>
</defs>
</svg>
