<svg width="118" height="118" viewBox="0 0 118 118" fill="none" xmlns="http://www.w3.org/2000/svg">
<path d="M7.375 44.7417C7.375 31.6621 7.375 25.1223 9.92045 20.1266C12.1595 15.7322 15.7322 12.1595 20.1266 9.92045C25.1223 7.375 31.6621 7.375 44.7417 7.375H73.2583C86.3379 7.375 92.8777 7.375 97.8734 9.92045C102.268 12.1595 105.841 15.7322 108.08 20.1266C110.625 25.1223 110.625 31.6621 110.625 44.7417V73.2583C110.625 86.3379 110.625 92.8777 108.08 97.8734C105.841 102.268 102.268 105.841 97.8734 108.08C92.8777 110.625 86.3379 110.625 73.2583 110.625H44.7417C31.6621 110.625 25.1223 110.625 20.1266 108.08C15.7322 105.841 12.1595 102.268 9.92045 97.8734C7.375 92.8777 7.375 86.3379 7.375 73.2583V44.7417Z" fill="url(#paint0_linear_2002_9)"/>
<path d="M73.125 51.5L82.4659 45.8955C85.3409 44.1704 86.7786 43.3078 87.9614 43.4181C88.9927 43.5142 89.9338 44.047 90.5467 44.8819C91.25 45.8395 91.25 47.5159 91.25 50.8689V66.6311C91.25 69.9839 91.25 71.6604 90.5467 72.6182C89.9338 73.453 88.9927 73.9859 87.9614 74.0819C86.7786 74.1921 85.3409 73.3297 82.4659 71.6046L73.125 66M37.6 80.5H61.525C65.5854 80.5 67.6157 80.5 69.1665 79.7097C70.5306 79.0148 71.6398 77.9056 72.3347 76.5415C73.125 74.9907 73.125 72.9604 73.125 68.9V48.6C73.125 44.5396 73.125 42.5094 72.3347 40.9586C71.6398 39.5944 70.5306 38.4853 69.1665 37.7902C67.6157 37 65.5854 37 61.525 37H37.6C33.5396 37 31.5094 37 29.9586 37.7902C28.5944 38.4853 27.4853 39.5944 26.7902 40.9586C26 42.5094 26 44.5396 26 48.6V68.9C26 72.9604 26 74.9907 26.7902 76.5415C27.4853 77.9056 28.5944 79.0148 29.9586 79.7097C31.5094 80.5 33.5396 80.5 37.6 80.5Z" stroke="white" stroke-width="5" stroke-linecap="round" stroke-linejoin="round"/>
<defs>
<linearGradient id="paint0_linear_2002_9" x1="22.7442" y1="3.79835" x2="95.2558" y2="114.202" gradientUnits="userSpaceOnUse">
<stop stop-color="white"/>
<stop offset="0.470918" stop-color="#00613E"/>
<stop offset="0.8" stop-color="#005536"/>
</linearGradient>
</defs>
</svg>
