<svg width="603" height="501" viewBox="0 0 603 501" fill="none" xmlns="http://www.w3.org/2000/svg">
<mask id="mask0_2007_124" style="mask-type:luminance" maskUnits="userSpaceOnUse" x="0" y="0" width="402" height="402">
<path d="M401.149 131.511L131.511 0L-0.000115037 269.638L269.638 401.15L401.149 131.511Z" fill="white"/>
</mask>
<g mask="url(#mask0_2007_124)">
<path d="M131.15 205.3L70.2737 137.895C66.2727 133.463 70.5286 126.412 77.1785 126.457L389.812 128.567C396.056 128.608 398.769 136.485 393.873 140.363L148.814 334.501C143.601 338.631 135.907 335.695 136.331 329.739L142.803 239.144C143.691 226.746 139.482 214.523 131.15 205.3Z" fill="white"/>
</g>
<mask id="mask1_2007_124" style="mask-type:luminance" maskUnits="userSpaceOnUse" x="201" y="99" width="402" height="402">
<path d="M201 368.639L470.638 500.15L602.15 230.512L332.511 99.0003L201 368.639Z" fill="white"/>
</mask>
<g mask="url(#mask1_2007_124)">
<path d="M471 294.849L531.876 362.255C535.877 366.687 531.621 373.737 524.971 373.693L212.338 371.583C206.093 371.542 203.381 363.664 208.276 359.787L453.336 165.648C458.548 161.519 466.243 164.455 465.818 170.41L459.347 261.006C458.459 273.403 462.668 285.627 471 294.849Z" fill="white"/>
</g>
</svg>
