<svg width="3345" height="605" viewBox="0 0 3345 605" fill="none" xmlns="http://www.w3.org/2000/svg">
<g clip-path="url(#clip0_7_2)">
<path d="M131.15 309.3L70.2737 241.895C66.2727 237.463 70.5286 230.412 77.1785 230.457L389.812 232.567C396.056 232.608 398.769 240.485 393.873 244.363L148.814 438.501C143.601 442.631 135.907 439.695 136.331 433.739L142.803 343.144C143.691 330.746 139.482 318.523 131.15 309.3Z" fill="white"/>
</g>
<g clip-path="url(#clip1_7_2)">
<path d="M471 398.849L531.876 466.255C535.877 470.687 531.621 477.737 524.971 477.693L212.338 475.583C206.093 475.542 203.381 467.664 208.276 463.787L453.336 269.648C458.548 265.519 466.243 268.455 465.818 274.41L459.347 365.006C458.459 377.403 462.668 389.627 471 398.849Z" fill="white"/>
</g>
<path d="M706 475V240H761V278.5C767.333 264.167 776 253.667 787 247C798 240.333 810.333 237 824 237C828.667 237 832.833 237.333 836.5 238C840.167 238.333 843 239 845 240V294.5C840.333 293.5 835.667 292.667 831 292C826.333 291.333 821.667 291 817 291C801.667 291 788.833 297.167 778.5 309.5C768.167 321.5 763 338.833 763 361.5V475H706ZM978.328 480C954.328 480 932.661 475.333 913.328 466C893.995 456.667 878.495 443 866.828 425C855.495 406.667 849.828 384.167 849.828 357.5C849.828 332.5 855.161 310.833 865.828 292.5C876.828 274.167 891.328 260 909.328 250C927.661 240 948.161 235 970.828 235C994.161 235 1014.49 239.5 1031.83 248.5C1049.16 257.167 1062.66 269.167 1072.33 284.5C1081.99 299.833 1086.83 317.333 1086.83 337C1086.83 342.667 1085.99 349 1084.33 356C1082.66 363 1080.49 368.667 1077.83 373H908.328C909.995 386 913.995 397 920.328 406C926.995 414.667 935.661 421.333 946.328 426C956.995 430.333 969.495 432.5 983.828 432.5C998.495 432.5 1011.83 430.333 1023.83 426C1035.83 421.333 1047.16 415.167 1057.83 407.5L1076.83 448.5C1063.16 458.833 1047.99 466.667 1031.33 472C1014.99 477.333 997.328 480 978.328 480ZM908.328 333H1027.83C1028.16 332 1028.33 331.167 1028.33 330.5C1028.33 329.5 1028.33 328.667 1028.33 328C1028.33 318.333 1026.33 310 1022.33 303C1018.33 296 1012.16 290.667 1003.83 287C995.828 283 985.328 281 972.328 281C961.661 281 951.828 283.167 942.828 287.5C934.161 291.5 926.828 297.333 920.828 305C914.828 312.667 910.661 322 908.328 333ZM1229.61 571C1209.61 571 1190.95 568 1173.61 562C1156.28 556 1139.61 546.667 1123.61 534L1142.61 492C1157.95 503 1172.61 510.667 1186.61 515C1200.61 519.667 1213.95 522 1226.61 522C1249.95 522 1268.28 516 1281.61 504C1294.95 492 1301.61 474.167 1301.61 450.5V431.5C1293.95 441.167 1283.61 449.167 1270.61 455.5C1257.61 461.833 1242.28 465 1224.61 465C1204.95 465 1186.45 460.5 1169.11 451.5C1152.11 442.5 1138.28 429.5 1127.61 412.5C1117.28 395.167 1112.11 374.333 1112.11 350C1112.11 325.333 1117.28 304.5 1127.61 287.5C1138.28 270.5 1152.11 257.5 1169.11 248.5C1186.45 239.5 1204.95 235 1224.61 235C1243.61 235 1259.78 238.667 1273.11 246C1286.78 253 1297.28 261.667 1304.61 272V240H1359.11V441C1359.11 469 1353.78 492.667 1343.11 512C1332.78 531.333 1317.95 546 1298.61 556C1279.61 566 1256.61 571 1229.61 571ZM1237.61 417C1249.95 417 1261.11 414.5 1271.11 409.5C1281.11 404.167 1288.95 396.5 1294.61 386.5C1300.61 376.5 1303.61 364.333 1303.61 350C1303.61 335.333 1300.61 323.167 1294.61 313.5C1288.95 303.5 1281.11 296 1271.11 291C1261.11 285.667 1249.95 283 1237.61 283C1225.28 283 1213.95 285.667 1203.61 291C1193.61 296 1185.61 303.5 1179.61 313.5C1173.95 323.167 1171.11 335.333 1171.11 350C1171.11 364.333 1173.95 376.5 1179.61 386.5C1185.61 396.5 1193.61 404.167 1203.61 409.5C1213.95 414.5 1225.28 417 1237.61 417ZM1408.87 475V141H1465.87V475H1408.87ZM1629.87 480C1605.2 480 1583.37 475 1564.37 465C1545.7 454.667 1530.87 440.333 1519.87 422C1509.2 403.667 1503.87 382.167 1503.87 357.5C1503.87 332.833 1509.2 311.333 1519.87 293C1530.87 274.667 1545.7 260.5 1564.37 250.5C1583.37 240.167 1605.2 235 1629.87 235C1654.87 235 1676.7 240.167 1695.37 250.5C1714.04 260.5 1728.7 274.667 1739.37 293C1750.37 311.333 1755.87 332.833 1755.87 357.5C1755.87 382.167 1750.54 403.667 1739.87 422C1729.2 440.333 1714.37 454.667 1695.37 465C1676.37 475 1654.54 480 1629.87 480ZM1629.87 430.5C1643.54 430.5 1655.37 427.5 1665.37 421.5C1675.37 415.5 1683.2 407 1688.87 396C1694.54 385 1697.37 372.167 1697.37 357.5C1697.37 342.5 1694.54 329.667 1688.87 319C1683.2 308 1675.37 299.5 1665.37 293.5C1655.37 287.5 1643.54 284.5 1629.87 284.5C1616.2 284.5 1604.37 287.5 1594.37 293.5C1584.37 299.5 1576.54 308 1570.87 319C1565.2 329.667 1562.37 342.5 1562.37 357.5C1562.37 372.167 1565.2 385 1570.87 396C1576.54 407 1584.37 415.5 1594.37 421.5C1604.37 427.5 1616.2 430.5 1629.87 430.5ZM1907.29 480C1882.63 480 1860.79 475 1841.79 465C1823.13 454.667 1808.29 440.333 1797.29 422C1786.63 403.667 1781.29 382.167 1781.29 357.5C1781.29 332.833 1786.63 311.333 1797.29 293C1808.29 274.667 1823.13 260.5 1841.79 250.5C1860.79 240.167 1882.63 235 1907.29 235C1932.29 235 1954.13 240.167 1972.79 250.5C1991.46 260.5 2006.13 274.667 2016.79 293C2027.79 311.333 2033.29 332.833 2033.29 357.5C2033.29 382.167 2027.96 403.667 2017.29 422C2006.63 440.333 1991.79 454.667 1972.79 465C1953.79 475 1931.96 480 1907.29 480ZM1907.29 430.5C1920.96 430.5 1932.79 427.5 1942.79 421.5C1952.79 415.5 1960.63 407 1966.29 396C1971.96 385 1974.79 372.167 1974.79 357.5C1974.79 342.5 1971.96 329.667 1966.29 319C1960.63 308 1952.79 299.5 1942.79 293.5C1932.79 287.5 1920.96 284.5 1907.29 284.5C1893.63 284.5 1881.79 287.5 1871.79 293.5C1861.79 299.5 1853.96 308 1848.29 319C1842.63 329.667 1839.79 342.5 1839.79 357.5C1839.79 372.167 1842.63 385 1848.29 396C1853.96 407 1861.79 415.5 1871.79 421.5C1881.79 427.5 1893.63 430.5 1907.29 430.5ZM2071.21 475V141H2128.21V342.5L2228.21 240H2296.21L2200.71 336L2301.21 475H2232.71L2161.21 375L2128.21 408.5V475H2071.21ZM2359.66 478.5C2349.33 478.5 2341.16 475.5 2335.16 469.5C2329.16 463.167 2326.16 455.667 2326.16 447C2326.16 437.667 2329.16 430 2335.16 424C2341.16 418 2349.33 415 2359.66 415C2369.66 415 2377.66 418 2383.66 424C2390 430 2393.16 437.667 2393.16 447C2393.16 455.667 2390.16 463.167 2384.16 469.5C2378.16 475.5 2370 478.5 2359.66 478.5ZM2556.45 480C2531.79 480 2509.95 475 2490.95 465C2472.29 454.667 2457.45 440.333 2446.45 422C2435.79 403.667 2430.45 382.167 2430.45 357.5C2430.45 332.833 2435.79 311.333 2446.45 293C2457.45 274.667 2472.29 260.5 2490.95 250.5C2509.95 240.167 2531.79 235 2556.45 235C2573.45 235 2588.95 237.5 2602.95 242.5C2616.95 247.167 2629.79 254 2641.45 263L2620.95 306C2610.62 298.667 2599.95 293.333 2588.95 290C2578.29 286.333 2567.45 284.5 2556.45 284.5C2542.79 284.5 2530.95 287.5 2520.95 293.5C2510.95 299.167 2503.12 307.5 2497.45 318.5C2491.79 329.167 2488.95 342.167 2488.95 357.5C2488.95 372.5 2491.79 385.5 2497.45 396.5C2503.12 407.5 2510.95 416 2520.95 422C2530.95 427.667 2542.79 430.5 2556.45 430.5C2567.45 430.5 2578.29 428.833 2588.95 425.5C2599.95 421.833 2610.62 416.333 2620.95 409L2641.45 452C2629.79 461 2616.95 468 2602.95 473C2588.95 477.667 2573.45 480 2556.45 480ZM2790.42 480C2765.75 480 2743.92 475 2724.92 465C2706.25 454.667 2691.42 440.333 2680.42 422C2669.75 403.667 2664.42 382.167 2664.42 357.5C2664.42 332.833 2669.75 311.333 2680.42 293C2691.42 274.667 2706.25 260.5 2724.92 250.5C2743.92 240.167 2765.75 235 2790.42 235C2815.42 235 2837.25 240.167 2855.92 250.5C2874.58 260.5 2889.25 274.667 2899.92 293C2910.92 311.333 2916.42 332.833 2916.42 357.5C2916.42 382.167 2911.08 403.667 2900.42 422C2889.75 440.333 2874.92 454.667 2855.92 465C2836.92 475 2815.08 480 2790.42 480ZM2790.42 430.5C2804.08 430.5 2815.92 427.5 2825.92 421.5C2835.92 415.5 2843.75 407 2849.42 396C2855.08 385 2857.92 372.167 2857.92 357.5C2857.92 342.5 2855.08 329.667 2849.42 319C2843.75 308 2835.92 299.5 2825.92 293.5C2815.92 287.5 2804.08 284.5 2790.42 284.5C2776.75 284.5 2764.92 287.5 2754.92 293.5C2744.92 299.5 2737.08 308 2731.42 319C2725.75 329.667 2722.92 342.5 2722.92 357.5C2722.92 372.167 2725.75 385 2731.42 396C2737.08 407 2744.92 415.5 2754.92 421.5C2764.92 427.5 2776.75 430.5 2790.42 430.5ZM2954.34 475V240H3009.34V269C3016.01 258 3025.01 249.667 3036.34 244C3048.01 238 3062.01 235 3078.34 235C3094.34 235 3108.17 238.333 3119.84 245C3131.51 251.667 3140.51 260.833 3146.84 272.5C3154.17 260.167 3164.51 250.833 3177.84 244.5C3191.17 238.167 3206.51 235 3223.84 235C3251.17 235 3272.34 242.667 3287.34 258C3302.67 273.333 3310.34 297 3310.34 329V475H3253.34V337.5C3253.34 319.167 3249.67 305.833 3242.34 297.5C3235.34 288.833 3225.01 284.5 3211.34 284.5C3194.67 284.5 3182.01 290.667 3173.34 303C3165.01 315 3160.84 331.833 3160.84 353.5V475H3103.34V337.5C3103.34 319.167 3099.84 305.833 3092.84 297.5C3085.84 288.833 3075.51 284.5 3061.84 284.5C3045.51 284.5 3033.01 290.667 3024.34 303C3015.67 315 3011.34 331.833 3011.34 353.5V475H2954.34Z" fill="white"/>
<defs>
<clipPath id="clip0_7_2">
<rect width="300" height="300" fill="white" transform="translate(131.511 104) rotate(26)"/>
</clipPath>
<clipPath id="clip1_7_2">
<rect width="300" height="300" fill="white" transform="translate(470.638 604.15) rotate(-154)"/>
</clipPath>
</defs>
</svg>
